<svg xmlns="http://www.w3.org/2000/svg" width="178.118" height="40.894" viewBox="0 0 178.118 40.894">
  <g id="Group_160" data-name="Group 160" transform="translate(-208.578 -17.157)">
    <path id="Path_229" data-name="Path 229" d="M223.2,46.625h-4.75l-4.665,4.255h-1.763V46.625h-3.441V57.932h3.441V53.626h1.763l5.07,4.306H223.9l-7.2-5.713Z" fill="#2d2d2d"/>
    <path id="Path_230" data-name="Path 230" d="M238.092,55.1l-6.811-8.476H225.8V57.932h3.238V49.439l6.8,8.493h5.487V46.625h-3.238Z" fill="#2d2d2d"/>
    <path id="Path_231" data-name="Path 231" d="M254.316,46.523l-2.747-.017-2.441.051q-3.306,0-4.188,1.059t-.881,4.5l.034,2.085a3.538,3.538,0,0,0,1.068,2.874,4.617,4.617,0,0,0,3.035.89l2.339.085,1.085-.018,2.594-.05q3.576,0,4.458-1.2t.882-4.722v-.542q0-3-1.11-4T254.316,46.523Zm1.729,6.86q0,1.242-.636,1.556a5.061,5.061,0,0,1-2.094.314l-1.763.017-1.848-.034q-1.441,0-1.8-.544a4.154,4.154,0,0,1-.365-2.108v-.765a11.346,11.346,0,0,1,.093-1.283,1.13,1.13,0,0,1,.7-1.012,5.151,5.151,0,0,1,1.78-.238l3.425-.017a8.157,8.157,0,0,1,1.212.085,1.6,1.6,0,0,1,.856.349,1.377,1.377,0,0,1,.381.816,8.18,8.18,0,0,1,.093,1.334Z" fill="#2d2d2d"/>
    <path id="Path_232" data-name="Path 232" d="M281.429,46.625,278.021,55.2l-2.827-8.578h-4.138L268.064,55.2l-3.284-8.578h-3.532l4.594,11.307h4.611l2.628-8.019,2.517,8.019h4.671l4.662-11.307Z" fill="#2d2d2d"/>
    <path id="Path_233" data-name="Path 233" d="M300.726,54.035l-4.171-7.281h-5.08V57.7h3.134V49.363l4.774,8.334h2.674l4.823-8.334V57.7h3.15V46.754h-5.09Z" fill="#2d2d2d"/>
    <path id="Path_234" data-name="Path 234" d="M319.7,51.266l-3.707-4.512h-4.209l6.251,7.137V57.7h3.347V53.891l6.152-7.137h-4.159Z" fill="#2d2d2d"/>
    <path id="Path_235" data-name="Path 235" d="M332.392,49.494h4.889v8.2h3.33v-8.2h4.873v-2.74H332.392Z" fill="#75bf43"/>
    <path id="Path_236" data-name="Path 236" d="M357.067,46.656l-2.658-.017-2.362.05q-3.2,0-4.053,1.025t-.853,4.356l.033,2.018a3.42,3.42,0,0,0,1.034,2.78,4.458,4.458,0,0,0,2.936.862l2.264.082,1.05-.017,2.51-.049q3.462,0,4.315-1.157t.854-4.568v-.526q0-2.9-1.075-3.871T357.067,46.656Zm1.673,6.639q0,1.2-.615,1.505a4.876,4.876,0,0,1-2.026.305l-1.706.016-1.788-.033q-1.4,0-1.748-.526a4.026,4.026,0,0,1-.353-2.04v-.741a10.759,10.759,0,0,1,.09-1.242,1.092,1.092,0,0,1,.682-.979A4.98,4.98,0,0,1,353,49.33l3.314-.016a7.935,7.935,0,0,1,1.174.082,1.545,1.545,0,0,1,.828.337,1.335,1.335,0,0,1,.369.79,7.908,7.908,0,0,1,.09,1.291Z" fill="#75bf43"/>
    <path id="Path_237" data-name="Path 237" d="M380.008,55.056l-2.736-8.3h-4.005l-2.9,8.3-3.178-8.3h-3.418L368.222,57.7h4.462l2.544-7.76,2.436,7.76h4.52L386.7,46.754h-3.389Z" fill="#75bf43"/>
    <path id="Path_238" data-name="Path 238" d="M306.39,27.478l0-.021-.087.023.071,0Z" fill="#75bf43"/>
    <path id="Path_239" data-name="Path 239" d="M342.948,33.788c-.075-.218-.17-.43-.238-.648a1.046,1.046,0,0,1,0-.268c-.023-.648-.033-1.173-.072-1.606H291.225c.062.384.118.772.163,1.163.069.561.118,1.125.15,1.7a2.941,2.941,0,0,1-1.46,3.057,2.076,2.076,0,0,0,1.151.3c1.4.027,2.8.264,4.2.408a1.559,1.559,0,0,0,.258-.052,5.078,5.078,0,0,1,1.945-4.276,4.446,4.446,0,0,1,2.93-.939,4.67,4.67,0,0,1,3.507,1.741,5.689,5.689,0,0,1,1.049,3.91c4.24,0,8.339,0,12.436,0,3.683-.006,7.365-.032,11.048-.013.661,0,.909-.169.867-.853a4.67,4.67,0,1,1,9.333-.333c.013.147.036.293.069.557,1.16,0,2.317.013,3.474-.016a.6.6,0,0,0,.42-.368,16.28,16.28,0,0,0,.531-2.353A2.93,2.93,0,0,0,342.948,33.788Z" fill="#75bf43"/>
    <path id="Path_240" data-name="Path 240" d="M289.958,29.767H276.273v1.5h13.97C290.161,30.761,290.068,30.261,289.958,29.767Z" fill="#75bf43"/>
    <path id="Path_241" data-name="Path 241" d="M251.976,31.265H268.1v-1.5H252.108Z" fill="#75bf43"/>
    <path id="Path_242" data-name="Path 242" d="M339.135,28.812c-2.373-.417-4.823-.385-7.232-.6a4.518,4.518,0,0,1-1.678-.473c-.856-.451-1.705-.916-2.553-1.383-1.27-.7-2.536-1.4-3.818-2.078a3.3,3.3,0,0,0-1.47-.316c-.924-.006-1.848,0-2.772-.008-3.326-.01-6.651-.007-9.977-.028a1.184,1.184,0,0,0-1.375,1.17c-.088.655-.23,1.305-.333,1.957-.051.321-.1.643-.114.967-.045.8-.361,1.049-1.108.945a6.636,6.636,0,0,0-.929-.007c0,.016,0,.033,0,.052h-.609a.375.375,0,0,0-.059-.021.978.978,0,0,0-.606.021H290.756c.062.251.124.5.179.76.013.055.026.11.036.166h51.292C341.846,29.359,340.983,29.138,339.135,28.812ZM317.075,27.8V28.7h-6.664c.092-.826.166-1.611.264-2.38.037-.291.077-.579.123-.866.033-.222.346-.564.535-.57,1.607-.036,3.222-.03,4.859-.027h.883Zm10.813.925h-8.73c-.054-.4-.108-.792-.161-1.187-.118-.867-.236-1.739-.364-2.669,1.89.046,3.627-.339,5.182.818.464.346.94.676,1.42,1,.921.626,1.86,1.229,2.784,1.853C327.976,28.6,327.931,28.659,327.888,28.721Z" fill="#2d2d2d"/>
    <path id="Path_243" data-name="Path 243" d="M334.14,33.809a4.071,4.071,0,0,0-4.091,4.1,4.068,4.068,0,0,0,8.135.039A4.049,4.049,0,0,0,334.14,33.809Zm-.015,6.072a1.978,1.978,0,0,1-1.961-2.02,1.949,1.949,0,0,1,2.01-1.954,1.987,1.987,0,0,1-.049,3.974Z" fill="#2d2d2d"/>
    <path id="Path_244" data-name="Path 244" d="M300.44,33.808a4.036,4.036,0,0,0-4.057,4.118,3.949,3.949,0,0,0,4.058,4,4,4,0,0,0,4.071-4A4.072,4.072,0,0,0,300.44,33.808Zm.017,6.072a2.057,2.057,0,0,1-2.015-1.888,2.034,2.034,0,0,1,1.887-2.084,1.987,1.987,0,1,1,.128,3.972Z" fill="#2d2d2d"/>
    <path id="Path_245" data-name="Path 245" d="M271.794,31.669c0-.788.009-7.4,0-8.98h-2.647c-.005,1.7,0,8.581,0,9.554,0,.435,0,3.518,0,5.622H271.8c0-2.237,0-5.615,0-6.2Z" fill="#2d2d2d"/>
    <path id="Path_246" data-name="Path 246" d="M267.214,35.368a4.089,4.089,0,0,0-3.2-1.56,4.017,4.017,0,0,0-3.932,3.077,4.193,4.193,0,0,0-.125,1.041,3.949,3.949,0,0,0,4.058,4,4,4,0,0,0,4.07-4,3.922,3.922,0,0,0-.025-.474A4.06,4.06,0,0,0,267.214,35.368Zm-3.185,4.512c-.06,0-.121,0-.181-.007a2.082,2.082,0,0,1-1.775-1.522,1.879,1.879,0,0,1-.058-.359,2.033,2.033,0,0,1,1.887-2.084,1.987,1.987,0,1,1,.127,3.972Z" fill="#2d2d2d"/>
    <path id="Path_247" data-name="Path 247" d="M286.657,21.553l-.013-.021q-.629-1.048-1.348-2.065c-.069-.1-.14-.192-.211-.283a5.138,5.138,0,0,0-2.176-1.662,5.566,5.566,0,0,0-2.063-.365q-2.643,0-5.286,0h-5.05l-14.26,0a3.021,3.021,0,0,0-3.28,2.977q-.182,2.023-.361,4.049-.19,2.12-.379,4.238h15.841v-.021h.351V21.782h7.45l.237,1.243.2,5.207h13.259a27.736,27.736,0,0,0-2.853-6.58Z" fill="#2d2d2d"/>
  </g>
</svg>
